# xmcd
#
# Track frame offsets:
#	150
#	9907
#	21397
#	37592
#	47925
#	59910
#	76027
#	85035
#	96732
#	107015
#	118925
#	129127
#
# Disc length: 1870 seconds
#
# Revision: 0
# Processed by: cddbd v1.5.1PL0 Copyright (c) Steve Scherf et al.
# Submitted via: dBpowerAMP V4.0
#
DISCID=93074c0c
DTITLE=Lulu Belle and Scotty - Sweethearts Still
DYEAR=1900
DGENRE=Country
TTITLE0=I Told Them All About You
TTITLE1=First Whipporwill Call
TTITLE2=Molly Darlin'
TTITLE3=Between You And Me
TTITLE4=Bonnie Blue Eyes
TTITLE5=I'll Be All Smiles Tonight
TTITLE6=Try To Live Some (While You're Here)
TTITLE7=Blue Eyes Cryin' In The Rain
TTITLE8=When I Yoo Hoo In The Valley
TTITLE9=Rocking Alone In An Old Rocking Chair
TTITLE10=Sweet Evalena
TTITLE11=Sunset Years Of Life
EXTD=
EXTT0=
EXTT1=
EXTT2=
EXTT3=
EXTT4=
EXTT5=
EXTT6=
EXTT7=
EXTT8=
EXTT9=
EXTT10=
EXTT11=
PLAYORDER=
